<svg xmlns="http://www.w3.org/2000/svg" width="61" height="50" fill="none">
  <circle cx="11.06" cy="4.5" r="3.5" stroke="#75D1F7" stroke-linecap="round" stroke-linejoin="round" stroke-width="2"/>
  <path stroke="#75D1F7" stroke-linecap="round" stroke-linejoin="round" stroke-width="2" d="m14.36 15.58 14.2-12.25"/>
  <circle cx="11.06" cy="18.5" r="3.5" stroke="#75D1F7" stroke-linecap="round" stroke-linejoin="round" stroke-width="2"/>
  <path stroke="#75D1F7" stroke-linecap="round" stroke-linejoin="round" stroke-width="2" d="m14.36 7.42 14.2 13.41"/>
  <path fill="#003DA5" fill-rule="evenodd" d="M33 10.9a1 1 0 1 0 0 2h5a1 1 0 1 0 0-2h-5Zm10 0a1 1 0 1 0 0 2h5a1 1 0 1 0 0-2h-5Zm10 0a1 1 0 0 0 0 2h2.5c.41 0 .8.09 1.15.23a1 1 0 1 0 .77-1.85 4.99 4.99 0 0 0-1.92-.38H53Zm7.12 3.1a1 1 0 0 0-1.84.76c.14.35.22.74.22 1.14v2.35a1 1 0 1 0 2 0V15.9c0-.67-.13-1.32-.38-1.9Zm.38 8.95a1 1 0 0 0-2 0v4.7a1 1 0 1 0 2 0v-4.7Zm-58 0a1 1 0 1 0-2 0v4.7a1 1 0 1 0 2 0v-4.7Zm58 9.4a1 1 0 0 0-2 0v4.7a1 1 0 1 0 2 0v-4.7Zm-58 0a1 1 0 1 0-2 0v4.7a1 1 0 1 0 2 0v-4.7Zm58 9.4a1 1 0 0 0-2 0v2.35c0 .4-.08.8-.22 1.14a1 1 0 0 0 1.84.77c.25-.6.38-1.24.38-1.91v-2.35Zm-58 0a1 1 0 1 0-2 0v2.35c0 .67.13 1.32.38 1.91a1 1 0 0 0 1.85-.77 2.99 2.99 0 0 1-.23-1.14v-2.35Zm1.85 5.12a1 1 0 0 0-.76 1.85c.59.24 1.23.38 1.91.38H8a1 1 0 0 0 0-2H5.5c-.4 0-.8-.09-1.15-.23Zm53.07 1.85a1 1 0 0 0-.77-1.85 3.1 3.1 0 0 1-1.15.23H53a1 1 0 1 0 0 2h2.5a5.1 5.1 0 0 0 1.92-.38ZM13 47.1a1 1 0 1 0 0 2h5a1 1 0 0 0 0-2h-5Zm10 0a1 1 0 1 0 0 2h5a1 1 0 0 0 0-2h-5Zm10 0a1 1 0 1 0 0 2h5a1 1 0 0 0 0-2h-5Zm10 0a1 1 0 1 0 0 2h5a1 1 0 0 0 0-2h-5Z" clip-rule="evenodd"/>
</svg>