<svg xmlns="http://www.w3.org/2000/svg" fill="none" viewBox="0 0 96 56" width="96" height="56">
  <g clip-path="url(#a)">
    <path fill="#DB2524" d="M94.07 21.59C81.72 12.94 63.23 3.92 49.32.19a5.62 5.62 0 0 0-2.92 0C32.5 3.92 14 12.94 1.66 21.6A3.66 3.66 0 0 0 0 24.56v6.84c0 1.15.6 2.24 1.66 2.98 12.35 8.65 30.84 17.67 44.74 21.4.96.25 1.97.25 2.92 0 13.9-3.73 32.4-12.75 44.74-21.4a3.66 3.66 0 0 0 1.67-2.98v-6.84c0-1.14-.61-2.23-1.67-2.97Z"/>
    <path fill="url(#b)" d="M47.86 49.45c7.91-1.88 17.84-5.78 27.19-10 6.93-3.67 13.44-7.7 18.28-11.47-4.84-3.77-11.35-7.8-18.29-11.46-9.34-4.22-19.27-8.12-27.18-10-7.9 1.88-17.83 5.78-27.18 10C13.75 20.2 7.24 24.21 2.4 27.98c4.85 3.78 11.36 7.8 18.3 11.46 9.34 4.23 19.27 8.13 27.17 10Z"/>
    <path fill="#FBCB07" d="M20.68 16.53C30.03 12.3 39.95 8.4 47.86 6.52c7.91 1.88 17.84 5.78 27.2 10-9.27-4.88-19.3-9.12-27.2-11.27-7.9 2.15-17.93 6.4-27.18 11.28Zm0 22.9c9.35 4.23 19.27 8.13 27.18 10.02 7.91-1.89 17.84-5.79 27.2-10.01-9.27 4.89-19.3 9.13-27.2 11.27-7.9-2.14-17.93-6.38-27.18-11.27"/>
    <path fill="#fff" d="M54.38 25.5c0 .99-.47 1.46-1.5 1.46h-1.62v-6.03h1.76c.92 0 1.36.45 1.36 1.36v3.22Zm3.63 8.74v-3.02a2.76 2.76 0 0 0-2.77-2.77 2.76 2.76 0 0 0 2.77-2.76v-3.57c0-2.95-1.46-4.4-4.4-4.4h-5.97v20.53h3.62v-8.14h1.6c1.05 0 1.52.48 1.52 1.53v3.23c0 1.75.46 2.78 1.32 3.38h3.44a6.82 6.82 0 0 1-1.13-4Zm9.4-.36c0 .95-.45 1.39-1.36 1.39h-.75c-.94 0-1.38-.44-1.38-1.39v-11.8c0-.94.44-1.38 1.38-1.38h.75c.91 0 1.36.44 1.36 1.39v11.79Zm-.78-16.37h-1.94c-2.94 0-4.4 1.46-4.4 4.4v12.14c0 2.95 1.46 4.4 4.4 4.4h1.94c2.94 0 4.4-1.45 4.4-4.4V21.92c0-2.95-1.46-4.4-4.4-4.4Zm13.42 10.13 3.32 10.61h-3.72l-2-7.67-2.14 7.67h-3.49l3.32-10.3-3.25-10.23h3.73l1.96 7.08 2.04-7.09h3.49l-3.26 9.93ZM40.38 20.7h-.75c-.94 0-1.38.44-1.38 1.39v11.79c0 .95.44 1.39 1.38 1.39h.75c.92 0 1.36-.44 1.36-1.39v-11.8c0-.94-.44-1.38-1.36-1.38Zm.58 17.76h-1.94c-2.94 0-4.4-1.46-4.4-4.41V21.92c0-2.95 1.46-4.4 4.4-4.4h1.94c2.95 0 4.4 1.45 4.4 4.4v12.13c0 2.95-1.45 4.4-4.4 4.4ZM29.54 17.7v17.25h4v3.3H25.9V17.71h3.63Zm-5.6 12.62v3.72c0 2.95-1.47 4.4-4.42 4.4h-1.8c-2.94 0-4.4-1.45-4.4-4.4V21.92c0-2.95 1.46-4.4 4.4-4.4h1.77c2.95 0 4.37 1.42 4.37 4.36v3.46H20.3V22.1c0-.95-.44-1.4-1.35-1.4h-.61c-.95 0-1.4.45-1.4 1.4v11.79c0 .95.45 1.39 1.4 1.39h.68c.91 0 1.35-.44 1.35-1.39v-3.55h3.56"/>
    <path fill="#28429E" d="M92.07 39.98c0-.13-.12-.2-.37-.2h-.2v.42h.21c.24 0 .36-.08.36-.22Zm.02 1.04a4.97 4.97 0 0 1-.05-.4c-.02-.1-.14-.17-.37-.17h-.16v.57h-.34v-1.5h.56c.44 0 .67.15.67.44 0 .17-.1.3-.27.36.14.06.22.16.23.3l.06.4h-.33Zm.82-.74c0-.32-.11-.6-.34-.82a1.1 1.1 0 0 0-.82-.35c-.32 0-.59.12-.82.35a1.15 1.15 0 0 0 0 1.64c.23.23.5.34.82.34.32 0 .6-.1.82-.34.23-.22.34-.5.34-.82Zm.24 0c0 .39-.13.72-.41 1-.27.27-.6.4-1 .4a1.37 1.37 0 0 1-1.39-1.4 1.41 1.41 0 0 1 2.39-1c.28.28.41.61.41 1Z"/>
  </g>
  <defs>
    <radialGradient id="b" cx="0" cy="0" r="1" gradientTransform="rotate(180 39.47 9.7) scale(63.925)" gradientUnits="userSpaceOnUse">
      <stop stop-color="#80D0F4"/>
      <stop offset=".24" stop-color="#3766B9"/>
      <stop offset=".53" stop-color="#28429E"/>
      <stop offset="1" stop-color="#28429E"/>
    </radialGradient>
    <clipPath id="a">
      <path fill="#fff" d="M0 0h95.73v56H0z"/>
    </clipPath>
  </defs>
</svg>
